{"glyphs":{"0":{"ha":896,"x_min":0,"x_max":0,"o":"m 449 -21 b 826 486 643 -21 826 131 b 449 993 826 842 643 993 b 69 486 254 993 69 842 b 449 -21 69 131 254 -21 z m 449 90 b 199 486 322 90 199 193 b 449 882 199 778 322 882 b 697 486 575 882 697 778 b 449 90 697 193 575 90 z "},"1":{"ha":532,"x_min":0,"x_max":0,"o":"m 421 0 l 421 972 l 347 972 l 38 725 l 36 592 l 290 785 l 296 785 l 296 0 z "},"2":{"ha":769,"x_min":0,"x_max":0,"o":"m 714 0 l 714 114 l 268 114 l 474 311 b 700 689 563 396 700 525 b 375 993 700 874 565 993 b 42 703 188 993 69 849 l 160 669 b 379 876 179 771 244 876 b 568 688 499 876 568 794 b 393 400 568 564 456 463 l 81 81 l 81 0 z "},"3":{"ha":822,"x_min":0,"x_max":0,"o":"m 410 -21 b 761 274 600 -21 761 88 b 525 514 761 414 658 500 b 724 736 589 525 724 588 b 417 993 724 890 592 993 b 92 744 239 993 118 871 l 207 714 b 421 883 232 815 325 883 b 603 715 521 883 603 821 b 368 543 603 611 519 543 l 318 543 l 318 440 l 379 440 b 629 275 535 440 629 392 b 414 96 629 167 533 96 b 179 281 282 96 200 183 l 61 247 b 410 -21 93 106 225 -21 z "},"4":{"ha":831,"x_min":0,"x_max":0,"o":"m 614 350 l 614 972 l 450 972 l 42 367 l 42 242 l 489 242 l 489 0 l 614 0 l 614 242 l 789 242 l 789 350 z m 489 850 l 489 350 l 154 350 z "},"5":{"ha":788,"x_min":0,"x_max":0,"o":"m 392 -21 b 738 322 582 -21 738 115 b 425 625 738 506 600 628 b 207 518 318 624 240 569 l 236 853 l 690 853 l 690 972 l 132 972 l 92 429 l 208 429 b 396 531 251 494 314 531 b 608 322 515 531 608 451 b 392 90 608 181 518 90 b 174 274 267 90 194 190 l 50 243 b 392 -21 82 115 199 -21 z "},"6":{"ha":811,"x_min":0,"x_max":0,"o":"m 449 622 b 258 549 371 622 300 592 l 568 972 l 413 972 l 229 717 b 69 335 144 599 69 479 b 417 -21 69 115 215 -22 b 756 315 617 -19 756 110 b 449 622 756 501 622 622 z m 417 88 b 200 310 290 88 200 183 b 417 525 200 428 290 525 b 625 314 542 525 625 431 b 417 88 625 186 542 88 z "},"7":{"ha":733,"x_min":0,"x_max":0,"o":"m 42 858 l 565 858 l 138 0 l 276 0 l 706 888 l 706 972 l 42 972 z "},"8":{"ha":850,"x_min":0,"x_max":0,"o":"m 425 -21 b 786 263 633 -21 786 97 b 549 517 786 397 667 508 b 742 736 650 536 742 636 b 425 993 742 889 611 993 b 108 736 239 993 108 889 b 301 517 108 636 200 536 b 64 263 183 508 64 397 b 425 -21 64 97 217 -21 z m 425 556 b 235 724 325 556 235 624 b 425 890 235 826 325 890 b 615 724 525 890 615 826 b 425 556 615 624 525 556 z m 425 85 b 200 271 293 85 200 163 b 425 458 200 382 293 458 b 650 271 557 458 650 382 b 425 85 650 163 557 85 z "},"9":{"ha":811,"x_min":0,"x_max":0,"o":"m 399 0 l 582 256 b 742 638 667 374 742 493 b 394 993 742 857 596 994 b 56 657 194 992 56 863 b 363 350 56 471 189 350 b 563 447 449 350 525 393 l 569 447 l 243 0 z m 394 447 b 186 658 269 447 186 542 b 394 885 186 786 269 885 b 611 663 521 885 611 789 b 394 447 611 544 521 447 z "}," ":{"ha":306,"x_min":0,"x_max":0,"o":""},"A":{"ha":961,"x_min":0,"x_max":0,"o":"m 947 0 l 561 972 l 400 972 l 14 0 l 158 0 l 264 283 l 696 283 l 803 0 z m 481 858 l 657 389 l 304 389 z "},"B":{"ha":844,"x_min":0,"x_max":0,"o":"m 460 0 b 789 258 675 0 789 107 b 569 494 789 392 674 474 b 756 711 663 519 756 593 b 433 972 756 867 631 972 l 111 972 l 111 0 z m 244 865 l 429 865 b 622 706 533 865 622 817 b 435 533 622 594 525 533 l 244 533 z m 244 428 l 460 428 b 653 268 568 428 653 379 b 456 108 653 163 568 108 l 244 108 z "},"C":{"ha":1072,"x_min":0,"x_max":0,"o":"m 550 -21 b 1017 300 776 -21 960 113 l 892 338 b 550 100 843 199 714 100 b 197 486 336 100 197 272 b 550 875 197 699 336 875 b 892 635 714 875 843 774 l 1017 672 b 550 994 960 860 776 994 b 56 486 268 994 56 768 b 550 -21 56 204 268 -21 z "},"D":{"ha":1006,"x_min":0,"x_max":0,"o":"m 436 0 b 950 486 661 0 950 126 b 436 972 950 846 661 972 l 111 972 l 111 0 z m 244 864 l 421 864 b 811 486 603 864 811 765 b 421 108 811 207 603 108 l 244 108 z "},"E":{"ha":794,"x_min":0,"x_max":0,"o":"m 739 0 l 739 108 l 244 108 l 244 439 l 675 439 l 675 544 l 244 544 l 244 865 l 711 865 l 711 972 l 111 972 l 111 0 z "},"F":{"ha":760,"x_min":0,"x_max":0,"o":"m 236 0 l 236 421 l 663 421 l 663 529 l 236 529 l 236 864 l 704 864 l 704 972 l 111 972 l 111 0 z "},"G":{"ha":1069,"x_min":0,"x_max":0,"o":"m 550 -21 b 1014 472 832 -21 1028 176 l 560 472 l 560 358 l 882 358 b 550 100 865 201 725 100 b 196 486 336 100 196 272 b 550 875 196 699 336 875 b 885 643 718 875 836 768 l 1010 681 b 550 994 953 854 781 994 b 56 486 268 994 56 768 b 550 -21 56 204 268 -21 z "},"H":{"ha":989,"x_min":0,"x_max":0,"o":"m 244 0 l 244 447 l 744 447 l 744 0 l 878 0 l 878 972 l 744 972 l 744 553 l 244 553 l 244 972 l 111 972 l 111 0 z "},"I":{"ha":349,"x_min":0,"x_max":0,"o":"m 238 0 l 238 972 l 111 972 l 111 0 z "},"J":{"ha":736,"x_min":0,"x_max":0,"o":"m 336 -21 b 639 292 519 -21 639 92 l 639 972 l 506 972 l 506 306 b 339 93 506 161 449 93 b 153 267 233 93 174 183 l 28 231 b 336 -21 58 103 151 -21 z "},"K":{"ha":882,"x_min":0,"x_max":0,"o":"m 244 0 l 244 464 l 676 0 l 868 0 l 389 506 l 806 972 l 628 972 l 244 536 l 244 972 l 111 972 l 111 0 z "},"L":{"ha":681,"x_min":0,"x_max":0,"o":"m 639 0 l 639 111 l 244 111 l 244 972 l 111 972 l 111 0 z "},"M":{"ha":1194,"x_min":0,"x_max":0,"o":"m 242 0 l 233 813 l 526 22 l 668 22 l 961 813 l 953 0 l 1083 0 l 1083 972 l 890 972 l 597 156 l 304 972 l 111 972 l 111 0 z "},"N":{"ha":1028,"x_min":0,"x_max":0,"o":"m 242 0 l 242 783 l 771 0 l 917 0 l 917 972 l 786 972 l 786 189 l 257 972 l 111 972 l 111 0 z "},"O":{"ha":1100,"x_min":0,"x_max":0,"o":"m 550 -21 b 1044 486 832 -21 1044 204 b 550 994 1044 768 832 994 b 56 486 268 994 56 768 b 550 -21 56 204 268 -21 z m 550 100 b 197 486 336 100 197 272 b 550 875 197 699 336 875 b 903 486 764 875 903 699 b 550 100 903 272 764 100 z "},"P":{"ha":836,"x_min":0,"x_max":0,"o":"m 244 0 l 244 350 l 436 350 b 794 661 649 350 794 483 b 436 972 794 839 649 972 l 111 972 l 111 0 z m 244 864 l 432 864 b 656 661 540 864 656 793 b 432 458 656 528 540 458 l 244 458 z "},"Q":{"ha":1128,"x_min":0,"x_max":0,"o":"m 924 133 b 1058 486 1008 225 1058 349 b 564 994 1058 768 846 994 b 69 486 282 994 69 768 b 564 -21 69 204 282 -21 b 829 56 663 -21 754 7 l 978 -93 l 1064 -7 z m 564 100 b 211 486 350 100 211 272 b 564 875 211 699 350 875 b 917 486 778 875 917 699 b 832 225 917 386 886 294 l 657 400 l 571 314 l 739 146 b 564 100 689 117 631 100 z "},"R":{"ha":814,"x_min":0,"x_max":0,"o":"m 244 0 l 244 397 l 610 0 l 800 0 l 421 389 l 438 389 b 769 685 613 389 769 504 b 404 972 769 865 617 972 l 111 972 l 111 0 z m 244 864 l 400 864 b 631 679 521 864 631 811 b 400 494 631 553 521 494 l 244 494 z "},"S":{"ha":810,"x_min":0,"x_max":0,"o":"m 397 -21 b 736 250 576 -21 736 68 b 463 536 736 393 649 488 l 378 558 b 214 728 283 583 214 632 b 406 892 214 825 294 892 b 618 693 531 892 593 792 l 740 728 b 408 993 704 886 589 993 b 82 717 207 993 82 864 b 367 428 82 571 199 472 l 450 406 b 601 239 553 378 601 315 b 401 81 601 133 510 81 b 175 267 283 81 199 156 l 47 233 b 397 -21 83 71 200 -21 z "},"T":{"ha":772,"x_min":0,"x_max":0,"o":"m 453 0 l 453 861 l 744 861 l 744 972 l 28 972 l 28 861 l 319 861 l 319 0 z "},"U":{"ha":982,"x_min":0,"x_max":0,"o":"m 490 -21 b 885 375 710 -21 885 111 l 885 972 l 751 972 l 751 388 b 490 100 751 221 672 100 b 232 388 308 100 232 221 l 232 972 l 97 972 l 97 375 b 490 -21 97 111 272 -21 z "},"V":{"ha":925,"x_min":0,"x_max":0,"o":"m 463 157 l 161 972 l 14 972 l 389 0 l 535 0 l 911 972 l 764 972 z "},"W":{"ha":1289,"x_min":0,"x_max":0,"o":"m 431 0 l 644 811 l 858 0 l 1014 0 l 1275 972 l 1132 972 l 933 160 l 722 972 l 567 972 l 356 160 l 157 972 l 14 972 l 275 0 z "},"X":{"ha":914,"x_min":0,"x_max":0,"o":"m 182 0 l 457 383 l 733 0 l 894 0 l 539 486 l 894 972 l 733 972 l 457 589 l 182 972 l 19 972 l 376 486 l 19 0 z "},"Y":{"ha":904,"x_min":0,"x_max":0,"o":"m 518 0 l 517 361 l 890 972 l 742 972 l 451 489 l 163 972 l 14 972 l 385 361 l 388 0 z "},"Z":{"ha":863,"x_min":0,"x_max":0,"o":"m 821 0 l 821 111 l 204 111 l 783 863 l 783 972 l 51 972 l 51 861 l 619 861 l 42 108 l 42 0 z "},"a":{"ha":754,"x_min":0,"x_max":0,"o":"m 318 -21 b 549 96 438 -21 515 43 l 546 0 l 671 0 l 671 435 b 383 715 671 622 544 715 b 72 515 215 715 97 625 l 189 485 b 376 614 213 556 288 614 b 546 429 471 614 546 546 l 546 335 b 331 414 513 365 446 414 b 64 199 185 414 64 332 b 318 -21 64 64 163 -21 z m 358 78 b 194 197 254 78 194 129 b 358 322 194 267 250 322 b 549 208 458 322 549 278 b 358 78 549 140 464 78 z "},"b":{"ha":854,"x_min":0,"x_max":0,"o":"m 469 -19 b 799 347 664 -19 799 146 b 469 714 799 546 664 714 b 217 554 346 714 256 639 l 217 972 l 92 972 l 92 0 l 217 0 l 214 142 b 469 -19 257 60 350 -19 z m 442 89 b 211 347 315 88 211 199 b 442 606 211 494 315 606 b 669 347 568 606 669 494 b 442 89 669 199 569 90 z "},"c":{"ha":789,"x_min":0,"x_max":0,"o":"m 407 -21 b 739 231 592 -21 708 103 l 617 264 b 407 90 596 181 526 90 b 185 347 269 90 185 203 b 407 604 185 492 269 604 b 617 431 526 604 596 514 l 739 464 b 407 715 708 592 592 715 b 56 347 196 715 56 549 b 407 -21 56 147 196 -21 z "},"d":{"ha":854,"x_min":0,"x_max":0,"o":"m 385 -19 b 640 142 504 -19 597 60 l 638 0 l 763 0 l 763 972 l 638 972 l 638 554 b 385 714 599 639 508 714 b 56 347 190 714 56 546 b 385 -19 56 146 190 -19 z m 413 89 b 185 347 285 90 185 199 b 413 606 185 494 286 606 b 643 347 539 606 643 494 b 413 89 643 199 539 88 z "},"e":{"ha":782,"x_min":0,"x_max":0,"o":"m 404 -21 b 721 190 581 -21 682 76 l 599 222 b 408 85 575 157 514 85 b 181 313 288 85 190 182 l 729 314 b 732 358 731 321 732 338 b 403 715 732 564 594 715 b 56 346 207 715 56 551 b 404 -21 56 142 190 -21 z m 185 404 b 401 611 189 510 274 611 b 606 406 528 611 601 513 z "},"f":{"ha":536,"x_min":0,"x_max":0,"o":"m 306 0 l 306 589 l 500 589 l 500 694 l 306 694 l 306 794 b 367 856 306 833 328 856 l 500 856 l 500 972 l 353 972 b 181 799 240 972 181 910 l 181 694 l 28 694 l 28 589 l 181 589 l 181 0 z "},"g":{"ha":847,"x_min":0,"x_max":0,"o":"m 410 -292 b 764 53 599 -292 764 -181 l 764 694 l 639 694 l 642 549 b 382 714 603 633 503 714 b 56 347 190 714 56 546 b 382 -1 56 161 190 -1 b 639 151 499 -1 596 69 l 639 57 b 410 -186 639 -104 533 -186 b 199 -71 318 -186 228 -151 l 76 -103 b 410 -292 119 -222 233 -292 z m 411 107 b 185 347 286 108 185 214 b 411 606 185 494 288 606 b 646 347 535 606 646 494 b 411 107 646 214 535 107 z "},"h":{"ha":807,"x_min":0,"x_max":0,"o":"m 217 0 l 217 358 b 425 604 217 496 310 604 b 597 392 522 604 597 539 l 597 0 l 724 0 l 724 411 b 458 714 724 610 619 714 b 217 546 339 714 247 618 l 217 972 l 92 972 l 92 0 z "},"i":{"ha":308,"x_min":0,"x_max":0,"o":"m 154 810 b 244 900 203 810 244 851 b 154 990 244 949 203 990 b 64 900 106 990 64 949 b 154 810 64 851 106 810 z m 217 0 l 217 694 l 92 694 l 92 0 z "},"j":{"ha":311,"x_min":0,"x_max":0,"o":"m 157 810 b 247 900 206 810 247 851 b 157 990 247 949 206 990 b 67 900 108 990 67 949 b 157 810 67 851 108 810 z m 47 -264 b 219 -90 160 -264 219 -201 l 219 694 l 94 694 l 94 -83 b 33 -144 94 -122 72 -144 l -42 -144 l -42 -264 z "},"k":{"ha":731,"x_min":0,"x_max":0,"o":"m 217 0 l 217 350 l 544 0 l 717 0 l 340 389 l 664 693 l 496 693 l 217 431 l 217 972 l 92 972 l 92 0 z "},"l":{"ha":308,"x_min":0,"x_max":0,"o":"m 217 0 l 217 972 l 92 972 l 92 0 z "},"m":{"ha":1194,"x_min":0,"x_max":0,"o":"m 217 0 l 217 368 b 399 606 217 492 292 606 b 539 396 499 606 539 524 l 539 0 l 664 0 l 664 372 b 847 606 664 496 740 606 b 986 396 946 606 986 524 l 986 0 l 1111 0 l 1111 414 b 879 714 1111 593 1042 714 b 644 536 765 714 675 628 b 433 714 624 636 550 714 b 214 543 328 714 239 622 l 217 694 l 92 694 l 92 0 z "},"n":{"ha":807,"x_min":0,"x_max":0,"o":"m 217 0 l 217 358 b 425 604 217 496 310 604 b 597 392 522 604 597 539 l 597 0 l 724 0 l 724 411 b 458 714 724 610 619 714 b 214 542 339 714 244 614 l 217 694 l 92 694 l 92 0 z "},"o":{"ha":819,"x_min":0,"x_max":0,"o":"m 410 -21 b 764 347 617 -21 764 136 b 410 715 764 560 617 715 b 56 347 203 715 56 560 b 410 -21 56 136 203 -21 z m 410 90 b 185 347 278 90 185 190 b 410 604 185 503 278 604 b 635 347 542 604 635 503 b 410 90 635 190 542 90 z "},"p":{"ha":854,"x_min":0,"x_max":0,"o":"m 217 -264 l 217 140 b 469 -19 256 56 346 -19 b 799 347 664 -19 799 149 b 469 714 799 549 664 714 b 214 553 350 714 257 635 l 217 694 l 92 694 l 92 -264 z m 442 89 b 211 347 315 89 211 200 b 442 606 211 496 315 607 b 669 347 569 604 669 496 b 442 89 669 200 568 89 z "},"q":{"ha":854,"x_min":0,"x_max":0,"o":"m 763 -264 l 763 694 l 638 694 l 640 553 b 385 714 597 635 504 714 b 56 347 190 714 56 549 b 385 -19 56 149 190 -19 b 638 140 508 -19 599 56 l 638 -264 z m 413 89 b 185 347 286 89 185 200 b 413 606 185 496 285 606 b 643 347 539 606 643 496 b 413 89 643 200 539 89 z "},"r":{"ha":531,"x_min":0,"x_max":0,"o":"m 217 0 l 217 344 b 432 581 217 499 313 581 b 503 578 472 581 500 578 l 503 700 b 446 706 488 703 471 706 b 217 536 346 706 264 642 l 214 536 l 217 694 l 92 694 l 92 0 z "},"s":{"ha":676,"x_min":0,"x_max":0,"o":"m 342 -21 b 614 175 507 -21 614 56 b 383 392 614 282 543 347 l 308 413 b 197 515 235 433 197 464 b 335 624 197 578 258 624 b 503 481 417 624 479 569 l 615 511 b 335 715 590 635 496 715 b 76 507 171 715 76 621 b 288 299 76 400 146 338 l 363 278 b 489 171 435 258 489 226 b 342 72 489 111 432 72 b 160 210 250 72 183 121 l 47 179 b 342 -21 72 56 181 -21 z "},"t":{"ha":538,"x_min":0,"x_max":0,"o":"m 496 0 l 496 117 l 363 117 b 301 178 324 117 301 139 l 301 589 l 496 589 l 496 694 l 301 694 l 301 889 l 178 889 l 178 694 l 24 694 l 24 589 l 176 589 l 176 174 b 349 0 176 63 236 0 z "},"u":{"ha":793,"x_min":0,"x_max":0,"o":"m 335 -19 b 579 153 454 -19 549 81 l 576 0 l 701 0 l 701 694 l 576 694 l 576 336 b 368 90 576 199 483 90 b 210 303 271 90 210 156 l 210 694 l 83 694 l 83 283 b 335 -19 83 85 174 -19 z "},"v":{"ha":717,"x_min":0,"x_max":0,"o":"m 418 0 l 703 694 l 569 694 l 358 140 l 147 694 l 14 694 l 299 0 z "},"w":{"ha":1047,"x_min":0,"x_max":0,"o":"m 356 0 l 524 554 l 692 0 l 832 0 l 1033 694 l 907 694 l 756 131 l 593 694 l 454 694 l 292 131 l 140 694 l 14 694 l 215 0 z "},"x":{"ha":693,"x_min":0,"x_max":0,"o":"m 161 0 l 347 254 l 532 0 l 674 0 l 417 347 l 674 694 l 532 694 l 347 440 l 161 694 l 19 694 l 278 347 l 19 0 z "},"y":{"ha":738,"x_min":0,"x_max":0,"o":"m 319 -264 l 724 694 l 590 694 l 385 188 l 147 694 l 14 694 l 324 44 l 188 -264 z "},"z":{"ha":688,"x_min":0,"x_max":0,"o":"m 618 576 l 618 694 l 68 694 l 68 589 l 476 589 l 42 117 l 42 0 l 646 0 l 646 108 l 186 108 z "},"⁄":{"ha":738,"x_min":0,"x_max":0,"o":"m 160 -167 l 696 1083 l 578 1083 l 42 -167 z "},".":{"ha":322,"x_min":0,"x_max":0,"o":"m 161 -14 b 253 78 211 -14 253 28 b 161 169 253 128 211 169 b 69 78 111 169 69 128 b 161 -14 69 28 111 -14 z "},",":{"ha":338,"x_min":0,"x_max":0,"o":"m 115 -176 b 268 15 196 -176 268 -111 b 161 169 268 124 221 169 b 69 78 111 169 69 128 b 150 -10 69 29 101 -10 b 192 3 163 -10 183 -6 l 192 -8 b 108 -103 192 -65 151 -103 l 90 -103 l 90 -176 z "},"-":{"ha":944,"x_min":0,"x_max":0,"o":"m 819 418 l 819 515 l 125 515 l 125 418 z "},"’":{"ha":338,"x_min":0,"x_max":0,"o":"m 115 638 b 268 829 196 638 268 703 b 161 983 268 938 221 983 b 69 892 111 983 69 942 b 150 804 69 843 101 804 b 192 817 163 804 183 808 l 192 806 b 108 711 192 749 151 711 l 90 711 l 90 638 z "},"":{"ha":833,"x_min":0,"x_max":0,"o":"m 790 0 l 790 972 l 32 972 l 32 0 z m 99 910 l 724 910 l 724 63 l 99 63 z m 431 367 l 431 388 b 503 488 431 426 464 461 b 589 628 558 525 589 568 b 413 775 589 713 517 775 b 222 603 292 775 231 689 l 292 592 b 415 710 296 642 326 710 b 510 624 478 710 510 663 b 457 531 510 588 497 558 b 365 397 403 494 365 456 l 365 367 z m 400 176 b 454 232 429 176 454 201 b 400 285 454 261 429 285 b 346 232 369 285 346 261 b 400 176 346 201 369 176 z "}}}
